<svg xmlns="http://www.w3.org/2000/svg" width="31.196" height="30.268"><path data-name="Path 7865" d="M24.422 20.9a.379.379 0 0 1-.167-.538.379.379 0 0 1 .538-.167l4.417 2.338a14.758 14.758 0 0 0 1.99-7.39v-.056l-6.477-.2a.34.34 0 0 1 0-.668l6.44.019a14.6 14.6 0 0 0-.223-1.782l-1.8.093h-.019a.4.4 0 0 1-.408-.39.429.429 0 0 1 .39-.445l1.652-.093a14.846 14.846 0 0 0-2.134-4.788l-3.364 2.724A.4.4 0 0 1 24.7 9.5a.391.391 0 0 1 .074-.557l3.452-2.672a15.309 15.309 0 0 0-3.248-3.229L24 4.25a.381.381 0 0 1-.334.148.443.443 0 0 1-.26-.093.416.416 0 0 1-.056-.594l.946-1.169A16.291 16.291 0 0 0 17.964.167l-.687 6.143a.3.3 0 0 1-.353.241.3.3 0 0 1-.3-.315l.52-6.18Q16.368 0 15.588 0a16.061 16.061 0 0 0-6.81 1.522l.334.538a.419.419 0 0 1-.13.575.494.494 0 0 1-.223.056.42.42 0 0 1-.353-.2l-.371-.612c-.26.148-.538.3-.8.464l3.21 4.788a.281.281 0 1 1-.464.315L6.644 2.709a15.928 15.928 0 0 0-4.9 5.475l2.1.779a.389.389 0 0 1 .223.52.4.4 0 0 1-.52.223L1.41 8.852a16.855 16.855 0 0 0-.724 1.819l5.549 1.522a.4.4 0 0 1 .278.482.413.413 0 0 1-.5.278L.5 11.3a15.346 15.346 0 0 0-.5 3.843c0 .315.019.631.037.946l4.063-.222a.417.417 0 0 1 .445.39.429.429 0 0 1-.39.445l-4.046.223a14.6 14.6 0 0 0 2.6 6.736l1.113-.946a.421.421 0 1 1 .557.631l-1.151.984a13.375 13.375 0 0 0 1.076 1.225l4.565-5.14a.438.438 0 0 1 .612.019.445.445 0 0 1 .074.612l-4.6 5.154a15.43 15.43 0 0 0 4.138 2.691l1.744-3.489a.3.3 0 0 1 .371-.13.284.284 0 0 1 .13.371l-1.651 3.511a15.9 15.9 0 0 0 5.9 1.113 15.243 15.243 0 0 0 2.617-.223l-1.02-6.144a.275.275 0 0 1 .223-.315.305.305 0 0 1 .334.223l1.169 6.124a15.558 15.558 0 0 0 9.947-6.832ZM14.753 1.132a.416.416 0 0 1 .445.39l.167 2.394a.416.416 0 0 1-.39.445h-.037a.4.4 0 0 1-.408-.39l-.148-2.394a.414.414 0 0 1 .371-.445Zm1 27.261a.421.421 0 0 1-.408.39h-.019a.417.417 0 0 1-.39-.445l.148-2.691a.418.418 0 0 1 .835.056Zm-.334-8.24a5.166 5.166 0 0 1-5.308-5.011 5.166 5.166 0 0 1 5.308-5.011 5.166 5.166 0 0 1 5.308 5.011 5.157 5.157 0 0 1-5.306 5.012Zm10.411 4.472a.425.425 0 0 1-.315.148.443.443 0 0 1-.26-.093l-1.28-1.058a.422.422 0 1 1 .538-.65l1.28 1.058a.451.451 0 0 1 .039.596Z" fill="#feda4f"/></svg>